<svg xmlns="http://www.w3.org/2000/svg" viewBox="0 0 48 48" width="48" height="48" preserveAspectRatio="xMidYMid meet" style="width: 100%; height: 100%; transform: translate3d(0px, 0px, 0px);"><defs><clipPath id="__lottie_element_31"><rect width="48" height="48" x="0" y="0"></rect></clipPath></defs><g clip-path="url(#__lottie_element_31)"><g transform="matrix(1,0,0,1,29,29)" opacity="1" style="display: none;"><g opacity="1" transform="matrix(1,0,0,1,0,0)"><path fill="rgb(21,101,192)" fill-opacity="1" d=" M-9,7 C-9,7 7,7 7,7 C7,7 13,13 13,13 C13,13 13,-9 13,-9 C13,-11.208999633789062 11.208999633789062,-13 9,-13 C9,-13 -9,-13 -9,-13 C-11.208999633789062,-13 -13,-11.208999633789062 -13,-9 C-13,-9 -13,3 -13,3 C-13,5.209000110626221 -11.208999633789062,7 -9,7"></path></g></g><g transform="matrix(0.983927309513092,0.05580855533480644,-0.05580855533480644,0.983927309513092,20.008529663085938,32.24421691894531)" opacity="1" style="display: block;"><g opacity="1" transform="matrix(1,0,0,1,0,0)"><path fill="rgb(33,150,243)" fill-opacity="1" d=" M9.5,7 C9.5,7 -7.5,7 -7.5,7 C-7.5,7 -13.5,13 -13.5,13 C-13.5,13 -13.5,-9 -13.5,-9 C-13.5,-11.208999633789062 -11.708999633789062,-13 -9.5,-13 C-9.5,-13 9.5,-13 9.5,-13 C11.708999633789062,-13 13.5,-11.208999633789062 13.5,-9 C13.5,-9 13.5,3 13.5,3 C13.5,5.209000110626221 11.708999633789062,7 9.5,7"></path></g></g><g transform="matrix(0.9996955990791321,0.024671247228980064,-0.024671247228980064,0.9996955990791321,29.324684143066406,22.486328125)" opacity="1" style="display: block;"><g opacity="1" transform="matrix(1,0,0,1,0,0)"><path fill="rgb(21,101,192)" fill-opacity="1" d=" M-9,7 C-9,7 7,7 7,7 C7,7 13,13 13,13 C13,13 13,-9 13,-9 C13,-11.208999633789062 11.208999633789062,-13 9,-13 C9,-13 -9,-13 -9,-13 C-11.208999633789062,-13 -13,-11.208999633789062 -13,-9 C-13,-9 -13,3 -13,3 C-13,5.209000110626221 -11.208999633789062,7 -9,7"></path></g></g><g transform="matrix(0.6317747235298157,-0.014721699059009552,0.014721699059009552,0.6317747235298157,14.337576866149902,12.433759689331055)" opacity="1" style="display: block;"><g opacity="1" transform="matrix(1,0,0,1,0,0)"><path fill="rgb(33,150,243)" fill-opacity="1" d=" M9.5,7 C9.5,7 -7.5,7 -7.5,7 C-7.5,7 -13.5,13 -13.5,13 C-13.5,13 -13.5,-9 -13.5,-9 C-13.5,-11.208999633789062 -11.708999633789062,-13 -9.5,-13 C-9.5,-13 9.5,-13 9.5,-13 C11.708999633789062,-13 13.5,-11.208999633789062 13.5,-9 C13.5,-9 13.5,3 13.5,3 C13.5,5.209000110626221 11.708999633789062,7 9.5,7"></path></g></g></g></svg>